<?xml version="1.0" encoding="UTF-8" standalone="no"?>
<!-- Created with Inkscape (http://www.inkscape.org/) -->

<svg
   width="32"
   height="32"
   viewBox="0 0 32 32"
   version="1.1"
   id="svg1"
   inkscape:version="1.4 (86a8ad7, 2024-10-11)"
   sodipodi:docname="icon-32.svg"
   xmlns:inkscape="http://www.inkscape.org/namespaces/inkscape"
   xmlns:sodipodi="http://sodipodi.sourceforge.net/DTD/sodipodi-0.dtd"
   xmlns="http://www.w3.org/2000/svg"
   xmlns:svg="http://www.w3.org/2000/svg">
  <sodipodi:namedview
     id="namedview1"
     pagecolor="#ffffff"
     bordercolor="#000000"
     borderopacity="0.25"
     inkscape:showpageshadow="2"
     inkscape:pageopacity="0.0"
     inkscape:pagecheckerboard="0"
     inkscape:deskcolor="#d1d1d1"
     inkscape:document-units="px"
     inkscape:zoom="24.15625"
     inkscape:cx="15.979301"
     inkscape:cy="15.979301"
     inkscape:window-width="1920"
     inkscape:window-height="991"
     inkscape:window-x="2391"
     inkscape:window-y="960"
     inkscape:window-maximized="1"
     inkscape:current-layer="layer1" />
  <defs
     id="defs1">
    <inkscape:path-effect
       effect="bspline"
       id="path-effect9"
       is_visible="true"
       lpeversion="1.3"
       weight="33.333333"
       steps="2"
       helper_size="0"
       apply_no_weight="true"
       apply_with_weight="true"
       only_selected="false"
       uniform="false" />
    <inkscape:path-effect
       effect="bspline"
       id="path-effect8"
       is_visible="true"
       lpeversion="1.3"
       weight="33.333333"
       steps="2"
       helper_size="0"
       apply_no_weight="true"
       apply_with_weight="true"
       only_selected="false"
       uniform="false" />
    <inkscape:path-effect
       effect="bspline"
       id="path-effect7"
       is_visible="true"
       lpeversion="1.3"
       weight="33.333333"
       steps="2"
       helper_size="0"
       apply_no_weight="true"
       apply_with_weight="true"
       only_selected="false"
       uniform="false" />
    <inkscape:path-effect
       effect="bspline"
       id="path-effect6"
       is_visible="true"
       lpeversion="1.3"
       weight="33.333333"
       steps="2"
       helper_size="0"
       apply_no_weight="true"
       apply_with_weight="true"
       only_selected="false"
       uniform="false" />
    <inkscape:path-effect
       effect="bspline"
       id="path-effect5"
       is_visible="true"
       lpeversion="1.3"
       weight="33.333333"
       steps="2"
       helper_size="0"
       apply_no_weight="true"
       apply_with_weight="true"
       only_selected="false"
       uniform="false" />
    <inkscape:path-effect
       effect="bspline"
       id="path-effect4"
       is_visible="true"
       lpeversion="1.3"
       weight="33.333333"
       steps="2"
       helper_size="0"
       apply_no_weight="true"
       apply_with_weight="true"
       only_selected="false"
       uniform="false" />
    <inkscape:path-effect
       effect="bspline"
       id="path-effect3"
       is_visible="true"
       lpeversion="1.3"
       weight="33.333333"
       steps="2"
       helper_size="0"
       apply_no_weight="true"
       apply_with_weight="true"
       only_selected="false"
       uniform="false" />
    <inkscape:path-effect
       effect="bspline"
       id="path-effect2"
       is_visible="true"
       lpeversion="1.3"
       weight="33.333333"
       steps="2"
       helper_size="0"
       apply_no_weight="true"
       apply_with_weight="true"
       only_selected="false"
       uniform="false" />
    <inkscape:path-effect
       effect="bspline"
       id="path-effect1"
       is_visible="true"
       lpeversion="1.3"
       weight="33.333333"
       steps="2"
       helper_size="0"
       apply_no_weight="true"
       apply_with_weight="true"
       only_selected="false"
       uniform="false" />
  </defs>
  <g
     inkscape:label="Layer 1"
     inkscape:groupmode="layer"
     id="layer1">
    <path
       style="fill:#ffd42a;fill-opacity:0;stroke:#008000;stroke-width:2.5;stroke-linecap:round;stroke-dasharray:none"
       d="m 7.3686934,8.6520052 c 0.3311773,0.9107374 0.6623546,1.8214748 1.0556275,3.3117718 0.393273,1.490298 0.8486417,3.560156 1.090125,5.022855 0.2414833,1.4627 0.2690813,2.318241 0.2828803,3.125485 0.013799,0.807245 0.013799,1.566193 0.0069,2.062958 -0.0069,0.496766 -0.020698,0.73135 -0.027598,0.862442 -0.0069,0.131092 -0.0069,0.158692 0,0.165587 0.0069,0.0069 0.020698,-0.0069 0.2069858,-0.158695 0.1862875,-0.15179 0.5450625,-0.44157 1.6627855,-1.145322 1.117723,-0.703751 2.994394,-1.821474 4.326003,-2.697714 1.331608,-0.87624 2.118154,-1.510996 2.801207,-1.973265 0.683053,-0.462268 1.262614,-0.752048 1.655886,-0.959034 0.393273,-0.206985 0.600259,-0.331177 0.88314,-0.469167 0.28288,-0.137991 0.641656,-0.28978 0.848644,-0.379475 0.206988,-0.08969 0.262182,-0.117289 0.303579,-0.131087 0.0414,-0.0138 0.069,-0.0138 0.110392,-0.0483 0.04139,-0.0345 0.09659,-0.103491 0.144886,-0.151788 0.0483,-0.0483 0.08969,-0.07589 0.117291,-0.10349 0.0276,-0.0276 0.0414,-0.0552 0.069,-0.0759 0.0276,-0.0207 0.06899,-0.0345 0.144887,-0.0966 0.0759,-0.0621 0.186289,-0.17249 0.262186,-0.248386 0.0759,-0.0759 0.117286,-0.117286 0.172484,-0.186283 0.0552,-0.069 0.124194,-0.165591 0.200086,-0.255283 0.07589,-0.08969 0.158692,-0.17249 0.227689,-0.220788 0.069,-0.0483 0.124189,-0.0621 0.179388,-0.08279 0.0552,-0.0207 0.110393,-0.0483 0.069,-0.10349 -0.0414,-0.05519 -0.17939,-0.13799 -0.275985,-0.206987 -0.09659,-0.069 -0.151788,-0.124189 -0.324276,-0.248381 C 23.389391,13.136692 23.099611,12.943505 22.865027,12.777916 22.630443,12.612328 22.451055,12.474337 22.147476,12.308749 21.843897,12.14316 21.416127,11.949974 21.078051,11.791286 20.739975,11.632598 20.491592,11.508408 20.050022,11.308322 19.608452,11.108236 18.973696,10.832255 18.414834,10.570073 17.855972,10.307891 17.373006,10.059508 17.055627,9.8870202 16.738249,9.714532 16.58646,9.6179389 16.351876,9.5006469 16.117292,9.3833549 15.799914,9.2453644 15.406641,9.0452782 15.013368,8.8451919 14.5442,8.5830099 14.178525,8.4105218 13.81285,8.2380336 13.550668,8.1552393 13.343682,8.0793446 13.136697,8.0034499 12.984907,7.9344543 12.860716,7.8861576 12.736524,7.8378609 12.639931,7.8102629 12.564036,7.7757652 12.488141,7.7412675 12.432945,7.6998705 12.329452,7.6653729 12.225959,7.6308753 12.07417,7.6032774 11.839586,7.5342821 11.605002,7.4652868 11.287624,7.3548943 10.990945,7.2652005 10.694265,7.1755067 10.418284,7.1065114 10.252695,7.0582148 10.087107,7.0099182 10.03191,6.9823198 9.9353168,6.9547218 9.8387236,6.9271238 9.7007331,6.8995257 9.5972402,6.8650281 9.4937473,6.8305304 9.424752,6.7891332 9.3764554,6.7684347 9.3281588,6.7477361 9.3005608,6.7477361 9.238465,6.7270375 9.1763691,6.7063388 9.0797758,6.6649417 8.9555843,6.602846 8.8313928,6.5407503 8.6796033,6.457956 8.465718,6.3475636 8.2518327,6.2371712 7.9758517,6.0991807 7.8033635,6.0232859 7.6308754,5.9473911 7.5618801,5.9335921 7.5273825,6.0853816 c -0.034498,0.1517896 -0.034498,0.4691678 0.0069,0.9797327 0.041397,0.5105649 0.1241915,1.2143165 0.2000863,1.6765847 0.075895,0.4622681 0.14489,0.683053 0.1931866,0.8348425 0.048297,0.1517894 0.075895,0.234584 0.1034927,0.3173783"
       id="path1"
       inkscape:path-effect="#path-effect1"
       inkscape:original-d="m 7.3686934,8.6520052 c 0.3311772,0.9107374 0.6623545,1.8214748 0.9935317,2.7322118 0.4553687,2.069858 0.9107374,4.139716 1.3661061,6.209573 0.027598,0.855542 0.055196,1.711083 0.082794,2.566624 0,0.758948 0,1.517896 0,2.276843 -0.013799,0.234584 -0.027598,0.469168 -0.041397,0.703752 0,0.0276 0,0.0552 0,0.08279 0.013799,-0.0138 0.027598,-0.0276 0.041397,-0.0414 0.3587758,-0.28978 0.7175508,-0.57956 1.0763258,-0.86934 1.876671,-1.117723 3.753342,-2.235446 5.630013,-3.353169 0.786546,-0.634757 1.573092,-1.269513 2.359638,-1.90427 0.57956,-0.28978 1.159121,-0.57956 1.738681,-0.86934 0.206985,-0.124191 0.413971,-0.248383 0.620957,-0.372574 0.358775,-0.15179 0.717551,-0.303579 1.076326,-0.455369 0.0552,-0.0276 0.110392,-0.0552 0.165589,-0.08279 0.0276,0 0.0552,0 0.08279,0 0.0552,-0.069 0.110392,-0.137991 0.165589,-0.206986 0.0414,-0.0276 0.08279,-0.0552 0.124191,-0.08279 0.0138,-0.0276 0.0276,-0.0552 0.0414,-0.0828 0.0414,-0.0138 0.08279,-0.0276 0.124192,-0.0414 0.110392,-0.110392 0.220784,-0.220785 0.331177,-0.331177 0.0414,-0.0414 0.08279,-0.08279 0.124191,-0.124191 0.069,-0.09659 0.137991,-0.193187 0.206986,-0.289781 0.08279,-0.08279 0.165589,-0.165588 0.248383,-0.248382 0.0552,-0.0138 0.110392,-0.0276 0.165589,-0.0414 0.0552,-0.0276 0.110392,-0.0552 0.165588,-0.08279 -0.13799,-0.08279 -0.275981,-0.165589 -0.413971,-0.248383 -0.0552,-0.0552 -0.110393,-0.110392 -0.165589,-0.165588 -0.28978,-0.193187 -0.57956,-0.386374 -0.86934,-0.579561 -0.179388,-0.13799 -0.358776,-0.275981 -0.538163,-0.413971 C 21.843897,12.14316 21.416127,11.949973 20.988356,11.756787 20.739974,11.6326 20.491591,11.508409 20.243208,11.384217 19.608452,11.108236 18.973696,10.832255 18.338939,10.556274 17.855972,10.307891 17.373006,10.059508 16.890039,9.8111255 16.738249,9.7145321 16.58646,9.6179388 16.43467,9.5213454 16.117292,9.3833549 15.799914,9.2453644 15.482536,9.1073739 15.013368,8.8451919 14.5442,8.5830099 14.075032,8.3208279 13.81285,8.2380336 13.550668,8.1552393 13.288486,8.072445 13.136697,8.0034498 12.984907,7.9344545 12.833118,7.8654592 12.736524,7.8378611 12.639931,7.810263 12.543338,7.7826649 12.488141,7.7412678 12.432945,7.6998706 12.377749,7.6584735 12.225959,7.6308754 12.07417,7.6032773 11.92238,7.5756792 11.605002,7.4652868 11.287624,7.3548944 10.970246,7.2445019 10.694265,7.1755067 10.418284,7.1065114 10.142303,7.0375162 10.087107,7.0099181 10.03191,6.98232 9.9767141,6.9547219 9.8387236,6.9271238 9.7007331,6.8995257 9.5627426,6.8719276 9.4937473,6.8305304 9.424752,6.7891332 9.3557568,6.7477361 c -0.027598,0 -0.055196,0 -0.082794,0 C 9.1763691,6.7063389 9.0797758,6.6649418 8.9831824,6.6235446 8.8313928,6.5407503 8.6796033,6.457956 8.5278137,6.3751617 8.2518327,6.2371712 7.9758517,6.0991807 7.6998706,5.9611902 7.6308754,5.9473911 7.5618801,5.9335921 7.4928849,5.919793 c 0,0.3173782 0,0.6347564 0,0.9521346 0.082794,0.7037516 0.1655886,1.4075032 0.2483829,2.1112548 0.068995,0.2207848 0.1379905,0.4415696 0.2069858,0.6623545 0.027598,0.082794 0.055196,0.1655886 0.082794,0.2483829"
       transform="translate(3.767141,1.4489004)" />
    <path
       style="fill:#ffd42a;fill-opacity:0;stroke:#ffd42a;stroke-width:0.9;stroke-linecap:round;stroke-dasharray:none"
       d="m 7.0375162,11.673997 c -0.3587754,0.0138 -0.7175507,0.0276 -1.0142297,0.0759 -0.2966789,0.0483 -0.5312641,0.131091 -0.7451494,0.29668 C 5.0642518,12.212162 4.8710651,12.460545 4.698577,12.584737 4.5260888,12.708928 4.3742993,12.708928 3.8913323,12.52954 3.4083653,12.350152 2.5942216,11.991376 1.7800776,11.6326"
       id="path2"
       inkscape:path-effect="#path-effect2"
       inkscape:original-d="m 7.0375162,11.673997 c -0.3587754,0.0138 -0.7175507,0.0276 -1.076326,0.0414 -0.2345839,0.08279 -0.4691678,0.165588 -0.7037516,0.248382 -0.1931868,0.248383 -0.3863735,0.496766 -0.5795602,0.745149 -0.1517896,0 -0.3035791,0 -0.4553687,0 C 3.4083657,12.350151 2.5942216,11.991376 1.7800776,11.6326" />
    <path
       style="fill:#ffd42a;fill-opacity:0;stroke:#ffd42a;stroke-width:0.9;stroke-linecap:round;stroke-dasharray:none"
       d="m 9.3143596,17.469599 c -1.2419147,0.0414 -2.4838291,0.08279 -3.1116859,0.103492 -0.6278569,0.0207 -0.6416559,0.0207 -0.6485554,0.124192 -0.0069,0.103493 -0.0069,0.310479 -0.020698,0.455367 -0.013798,0.144888 -0.041397,0.227686 -0.062096,0.296683 -0.020699,0.069 -0.034497,0.12419 -0.13799,0.165588 -0.1034929,0.0414 -0.2966796,0.069 -0.5588625,2e-6 -0.262183,-0.069 -0.5933598,-0.234585 -0.8693404,-0.386375 -0.2759806,-0.151791 -0.4967652,-0.289781 -0.6347556,-0.365677 -0.1379905,-0.07589 -0.193187,-0.08969 -0.2207851,-0.103495 -0.027598,-0.0138 -0.027598,-0.0276 -0.068994,-0.069 -0.041396,-0.0414 -0.1241931,-0.110395 -0.2069872,-0.17939"
       id="path3"
       inkscape:path-effect="#path-effect3"
       inkscape:original-d="m 9.3143596,17.469599 c -1.2419146,0.0414 -2.4838292,0.08279 -3.7257438,0.124191 -0.013799,0 -0.027598,0 -0.041397,0 0,0.206986 0,0.413972 0,0.620958 -0.027598,0.08279 -0.055196,0.165588 -0.082794,0.248383 -0.013799,0.0552 -0.027598,0.110392 -0.041397,0.165588 -0.1931868,0.0276 -0.3863735,0.0552 -0.5795602,0.0828 C 4.5122898,18.545925 4.1811125,18.380336 3.8499353,18.214748 3.6291505,18.076757 3.4083657,17.938767 3.1875809,17.800776 c -0.055196,-0.0138 -0.1103925,-0.0276 -0.1655887,-0.0414 0,-0.0138 0,-0.0276 0,-0.0414 -0.082794,-0.06899 -0.1655886,-0.137991 -0.2483829,-0.206986" />
    <path
       style="fill:#ffd42a;fill-opacity:0;stroke:#ffd42a;stroke-width:0.9;stroke-linecap:round;stroke-dasharray:none"
       d="M 8.1552393,15.027167 C 7.5204829,14.875377 6.8857267,14.723588 6.313066,14.764985 c -0.5726607,0.0414 -1.0832256,0.275981 -1.3592054,0.427769 -0.2759798,0.151787 -0.317379,0.220786 -0.5726613,0.213887 -0.2552823,-0.0069 -0.7244508,-0.08969 -1.214317,-0.131091 -0.4898663,-0.0414 -1.0004312,-0.0414 -1.5109961,-0.0414"
       id="path4"
       inkscape:path-effect="#path-effect4"
       inkscape:original-d="M 8.1552393,15.027167 C 7.520483,14.875377 6.8857266,14.723588 6.2509702,14.571798 5.7404053,14.806382 5.2298404,15.040966 4.7192755,15.27555 c -0.041397,0.06899 -0.082794,0.13799 -0.1241914,0.206986 -0.4691678,-0.08279 -0.9383355,-0.165589 -1.4075032,-0.248383 -0.5105649,0 -1.0211298,0 -1.5316947,0" />
    <path
       style="fill:#ffd42a;fill-opacity:0;stroke:#ffd42a;stroke-width:0.9;stroke-linecap:round;stroke-dasharray:none"
       d="m 11.135834,21.071151 c -1.6558857,0.179388 -3.311772,0.358775 -4.2708061,0.88314 -0.9590341,0.524364 -1.221216,1.393704 -1.3937045,1.849073 -0.1724885,0.455369 -0.2552801,0.496765 -0.5381616,0.586459 -0.2828814,0.08969 -0.7658484,0.227685 -1.0970259,0.275981 -0.3311776,0.0483 -0.5105636,0.0069 -0.7106503,-0.13109 C 2.9253989,24.396723 2.7046141,24.162139 2.5804226,24.044847 2.4562312,23.927555 2.4286332,23.927555 2.4148342,23.920655 c -0.013799,-0.0069 -0.013799,-0.0207 -0.013799,-0.0207 0,0 0,0.0138 -0.0069,0.0207 -0.0069,0.0069 -0.020698,0.0069 -0.041397,0.0138 -0.020699,0.0069 -0.048297,0.0207 -0.1034913,0.0621 -0.055195,0.0414 -0.137992,0.110395 -0.2207862,0.17939"
       id="path5"
       inkscape:path-effect="#path-effect5"
       inkscape:original-d="M 11.135834,21.071151 C 9.4799483,21.250539 7.8240621,21.429927 6.1681759,21.609314 5.905994,22.478655 5.643812,23.347995 5.38163,24.217335 c -0.082794,0.0414 -0.1655886,0.08279 -0.2483829,0.124192 -0.4829668,0.13799 -0.9659336,0.275981 -1.4489004,0.413971 -0.1793877,-0.0414 -0.3587753,-0.08279 -0.538163,-0.124191 -0.2207848,-0.234584 -0.4415696,-0.469168 -0.6623545,-0.703752 -0.027598,0 -0.055196,0 -0.082794,0 0,-0.0138 0,-0.0276 0,-0.0414 0,0.0138 0,0.0276 0,0.0414 -0.013799,0 -0.027598,0 -0.041397,0 -0.027598,0.0138 -0.055196,0.0276 -0.082794,0.0414 -0.082794,0.06899 -0.1655886,0.137991 -0.248383,0.206986" />
    <path
       style="fill:#ffd42a;fill-opacity:0;stroke:#ffd42a;stroke-width:0.9;stroke-linecap:round;stroke-dasharray:none"
       d="m 9.7283312,19.580854 c -0.9935317,-0.0138 -1.9870634,-0.0276 -2.8633031,0.0276 -0.8762397,0.05519 -1.6351878,0.179387 -2.0284615,0.255282 -0.3932737,0.07589 -0.4208733,0.103493 -0.4829674,0.172486 -0.062094,0.06899 -0.1586872,0.179385 -0.2828779,0.282878 -0.1241908,0.103492 -0.2759816,0.200086 -0.3725761,0.275982 -0.096594,0.0759 -0.1379896,0.13109 -0.1655877,0.158688 -0.027598,0.0276 -0.041397,0.0276 -0.062096,0.0552 -0.020699,0.0276 -0.048296,0.08279 -0.2621807,0.158688 -0.2138848,0.07589 -0.6140582,0.172488 -1.0142305,0.269081"
       id="path6"
       inkscape:path-effect="#path-effect6"
       inkscape:original-d="m 9.7283312,19.580854 c -0.9935317,-0.0138 -1.9870634,-0.0276 -2.9805951,-0.0414 -0.7589478,0.124191 -1.5178957,0.248383 -2.2768435,0.372574 -0.027598,0.0276 -0.055196,0.0552 -0.082794,0.08279 -0.096593,0.110393 -0.1931867,0.220785 -0.2897801,0.331178 -0.1517895,0.09659 -0.3035791,0.193186 -0.4553687,0.28978 -0.041397,0.0552 -0.082794,0.110392 -0.1241914,0.165588 -0.013799,0 -0.027598,0 -0.041397,0 -0.027598,0.0552 -0.055196,0.110393 -0.082794,0.165589 -0.4001725,0.09659 -0.800345,0.193187 -1.2005174,0.28978" />
    <path
       style="fill:#ffd42a;fill-opacity:0;stroke:#ffd42a;stroke-width:0.9;stroke-linecap:round;stroke-dasharray:none"
       d="m 7.7826649,7.7412678 c -0.1517895,-0.013799 -0.3035791,-0.027598 -0.827943,-0.034498 -0.524364,-0.0069 -1.4213023,-0.0069 -1.9111685,-0.0069 -0.4898662,0 -0.5726608,0 -0.6761537,0.055196 C 4.2639069,7.810263 4.1397154,7.9206555 4.0017249,8.0241483 3.8637344,8.1276412 3.7119448,8.2242346 3.4704614,8.0862441 3.228978,7.9482536 2.8978008,7.5756792 2.5804226,7.2376025 2.2630444,6.8995257 1.9594653,6.5959465 1.6972833,6.3199655 1.4351014,6.0439845 1.2143165,5.7956016 0.99353169,5.5472186"
       id="path7"
       inkscape:path-effect="#path-effect7"
       inkscape:original-d="M 7.7826649,7.7412678 C 7.6308754,7.7274687 7.4790858,7.7136697 7.3272962,7.6998706 c -0.8969383,0 -1.7938766,0 -2.690815,0 -0.082794,0 -0.1655886,0 -0.2483829,0 C 4.2639069,7.810263 4.1397154,7.9206555 4.0155239,8.0310479 3.8637344,8.1276412 3.7119448,8.2242346 3.5601552,8.3208279 3.228978,7.9482536 2.8978008,7.5756792 2.5666235,7.2031048 2.2630444,6.8995257 1.9594653,6.5959465 1.6558862,6.2923674 1.4351013,6.0439845 1.2143165,5.7956016 0.99353169,5.5472186" />
    <path
       style="fill:#ffd42a;fill-opacity:0;stroke:#ffd42a;stroke-width:0.9;stroke-linecap:round;stroke-dasharray:none"
       d="M 7.2031048,3.5601552 C 5.6852091,3.0633894 4.1673135,2.5666235 3.2358775,2.5183269 2.3044416,2.4700302 1.9594653,2.8702027 1.6213885,2.8633032 1.2833118,2.8564036 0.95213456,2.4424321 0.76584737,2.2147477 0.57956018,1.9870634 0.53816298,1.9456662 0.49676585,1.9042691"
       id="path8"
       inkscape:path-effect="#path-effect8"
       inkscape:original-d="M 7.2031048,3.5601552 C 5.6852091,3.0633894 4.1673135,2.5666235 2.6494179,2.0698577 2.3044416,2.4700302 1.9594653,2.8702027 1.614489,3.2703752 1.2833118,2.8564036 0.95213454,2.4424321 0.62095731,2.0284605 0.57956016,1.9870634 0.538163,1.9456662 0.49676585,1.9042691" />
    <path
       style="fill:#ffd42a;fill-opacity:0;stroke:#ffd42a;stroke-width:0.9;stroke-linecap:round;stroke-dasharray:none"
       d="m 10.556274,24.300129 c -1.1453212,0.344976 -2.2906424,0.689953 -2.8840015,1.02113 -0.5933591,0.331177 -0.6347564,0.648556 -0.9797326,1.000432 -0.3449762,0.351875 -0.9935318,0.738249 -1.4558,1.083225 -0.4622681,0.344976 -0.7382492,0.648555 -0.9314363,0.821043 -0.1931872,0.172489 -0.3035772,0.213885 -0.6209561,0.234584 -0.317379,0.0207 -0.8417429,0.0207 -1.1867195,0 -0.3449766,-0.0207 -0.5105635,-0.0621 -0.7313495,-0.117292 -0.220786,-0.0552 -0.4967658,-0.124191 -0.7106511,-0.165589 -0.21388527,-0.0414 -0.36567483,-0.0552 -0.5174644,-0.069"
       id="path9"
       inkscape:path-effect="#path-effect9"
       inkscape:original-d="m 10.556274,24.300129 c -1.145321,0.344977 -2.2906423,0.689953 -3.4359635,1.034929 -0.041397,0.317378 -0.082794,0.634757 -0.1241915,0.952135 -0.6485554,0.386373 -1.2971108,0.772747 -1.9456662,1.15912 -0.275981,0.303579 -0.5519621,0.607158 -0.8279431,0.910737 -0.1103924,0.0414 -0.2207848,0.08279 -0.3311772,0.124192 -0.524364,0 -1.0487279,0 -1.5730919,0 -0.1655886,-0.0414 -0.3311772,-0.08279 -0.4967658,-0.124192 -0.2759811,-0.069 -0.5519621,-0.13799 -0.82794311,-0.206985 -0.15178956,-0.0138 -0.30357912,-0.0276 -0.45536869,-0.0414" />
  </g>
</svg>
